# xmcd CD database file
#
# Track frame offsets:
#	150
#	15411
#	41508
#	59572
#	73878
#	100574
#	125679
#	145187
#	181570
#	202660
#	210284
#
# Disc length: 3073 seconds
#
# Revision: 0
# Processed by: cddbd v1.5.2PL0 Copyright (c) Steve Scherf et al.
# Submitted via: CDex 1.70beta2
#
DISCID=8d0bff0b
DTITLE=Stephan Crump - Rosetta
DYEAR=2005
DGENRE=Jazz
TTITLE0=Tag
TTITLE1=Were It A Loss
TTITLE2=Rosetta
TTITLE3=Kudzu
TTITLE4=Carrousel En Verre
TTITLE5=Rosie
TTITLE6=Residual
TTITLE7=Our Survival
TTITLE8=Ingénue
TTITLE9=Atanarjuat
TTITLE10=The Bells of Bamburg
EXTD=YEAR: 2005
EXTT0=
EXTT1=
EXTT2=
EXTT3=
EXTT4=
EXTT5=
EXTT6=
EXTT7=
EXTT8=
EXTT9=
EXTT10=
PLAYORDER=
